<svg xmlns="http://www.w3.org/2000/svg" xmlns:xlink="http://www.w3.org/1999/xlink" viewBox="0 0 62.04 93.76"><defs><style>.cls-1{fill:none;}.cls-2{clip-path:url(#clip-path);}</style><clipPath id="clip-path" transform="translate(0 0)"><rect class="cls-1" x="0.02" width="62" height="93.76"/></clipPath></defs><title>Asset 1</title><g id="Layer_2" data-name="Layer 2"><g id="Layer_1-2" data-name="Layer 1"><g class="cls-2"><path d="M27.32,72.48h7.39a8.91,8.91,0,0,1-7.39,0" transform="translate(0 0)"/><path d="M18.24,40.66c-.83,1.38-.76,3.09.93,3.09a1.8,1.8,0,0,0,1.39-3c2.48.26,3.28,1.61,4.26,2.42-1.37-4.43-7.8-5.34-11.17.2a15.85,15.85,0,0,1,4.59-2.72" transform="translate(0 0)"/><path d="M27.09,39.27l-.77-.16c-.48-.11-1.14-.26-1.92-.49s-1.66-.54-2.61-.87l-1.47-.51-.09,0-.05,0h0l.06,0h0c-.05,0-.16,0-.14,0h-.21a5.55,5.55,0,0,0-.69,0,13.64,13.64,0,0,0-2.92.68c-.91.33-1.76.64-2.45.92l-.94.41-.74.29a4.44,4.44,0,0,0-.72.35,1,1,0,0,1,0-.25,1.74,1.74,0,0,1,.13-.7A3.07,3.07,0,0,1,12,38a5.56,5.56,0,0,1,1-.82,9.7,9.7,0,0,1,2.69-1.25A20.31,20.31,0,0,1,19,35.17a5.59,5.59,0,0,1,.93-.06,2.78,2.78,0,0,1,.59,0,1.44,1.44,0,0,1,.25.07l.26.09c.5.2,1,.41,1.47.63A20.17,20.17,0,0,1,25,37.29a8.66,8.66,0,0,1,1.61,1.32,3.88,3.88,0,0,1,.51.66" transform="translate(0 0)"/><path d="M43.79,40.41c.83,1.38.76,3.09-.92,3.09a1.8,1.8,0,0,1-1.39-3c-2.48.26-3.29,1.61-4.27,2.42,1.37-4.43,7.81-5.34,11.17.2a15.58,15.58,0,0,0-4.59-2.72" transform="translate(0 0)"/><path d="M35,39.27a3.44,3.44,0,0,1,.5-.66,9,9,0,0,1,1.61-1.32A20.34,20.34,0,0,1,39.59,36q.7-.33,1.47-.63l.25-.09a2.33,2.33,0,0,1,.25-.07,2.83,2.83,0,0,1,.59,0,5.64,5.64,0,0,1,.94.06,20.31,20.31,0,0,1,3.29.75,9.77,9.77,0,0,1,2.68,1.25A5.28,5.28,0,0,1,50,38a3.31,3.31,0,0,1,.54.89,1.88,1.88,0,0,1,.12.7,1.53,1.53,0,0,1,0,.25,4.44,4.44,0,0,0-.72-.35l-.75-.29-.93-.41c-.7-.28-1.54-.59-2.45-.92a13.78,13.78,0,0,0-2.92-.68,5.71,5.71,0,0,0-.69,0H42s-.09,0-.14,0h0l.06,0h0l0,0-.1,0-1.46.51c-1,.33-1.85.63-2.62.87s-1.44.38-1.91.49l-.77.16" transform="translate(0 0)"/><path d="M58.31,63.82a1.53,1.53,0,0,1-.68-.18,3.63,3.63,0,0,1-1.91-2.88h1a2.65,2.65,0,0,0,1,1.76,1.11,1.11,0,0,0,.64.32c.48-.37.59-1.47.74-3a30.05,30.05,0,0,1,1.39-7.07c1.23-3.68.37-6.87-.74-7.37-.79-.36-1.6.89-1.92,1.44l-.13.14a.79.79,0,0,1-.88.09c-.48-.28-.45-1-.36-1.59,1.59-12.38-.5-22.27-6.05-28.58C45.85,11.78,39.16,9.06,31,9.06s-15,2.69-19.46,7.77C6.06,23.08,4,33,5.62,45.51c.08.58.12,1.3-.37,1.58A.79.79,0,0,1,4.37,47l-.13-.14c-.31-.55-1.13-1.79-1.92-1.44-1.11.5-2,3.69-.73,7.37A30.58,30.58,0,0,1,3,59.86c.15,1.51.25,2.61.76,3a1.53,1.53,0,0,0,.61-.34,2.61,2.61,0,0,0,1-1.76h1a3.65,3.65,0,0,1-1.91,2.88,1.11,1.11,0,0,1-1.26,0C2.3,63,2.18,61.78,2,60A28.57,28.57,0,0,0,.66,53.1C-.71,49,.22,45.3,1.92,44.53c.46-.2,1.56-.44,2.74,1.17v-.06c-1.67-13,.4-22.9,6.17-29.46C15.48,10.89,22.47,8.09,31,8.09s15.37,2.83,20.08,8.18C56.85,22.8,59,33,57.39,45.64a.13.13,0,0,0,0,.06c1.18-1.61,2.28-1.37,2.73-1.17,1.7.76,2.64,4.47,1.26,8.57A29.7,29.7,0,0,0,60,60c-.18,1.83-.3,3-1.14,3.68A.92.92,0,0,1,58.31,63.82Z" transform="translate(0 0)"/><path d="M56.79,52.57a27.74,27.74,0,0,1-.34-3.3.54.54,0,0,0-1.07-.06l-1.61,9.61s-4,2.44-4.51,4.19l-1.61,4.25s-.48-5.18-4.08-6.06C41.76,60.75,33.2,58,31.65,59.89a2.66,2.66,0,0,1-.63.54,2.48,2.48,0,0,1-.63-.54c-1.55-1.88-10.12.86-11.93,1.31-3.59.88-4.09,6.06-4.07,6.06L12.77,63c-.6-1.94-4.5-4.19-4.5-4.19L6.7,49.48a.57.57,0,0,0-1.13.06,25.79,25.79,0,0,1-.33,3C4.6,55.72,5,60.05,5.15,63.26c.37,6.81,5.66,14.67,7.63,18.25,1.15,2.09,5.13,11.81,10.76,12.11,3,.16,5.59.16,7.48.12s4.51,0,7.48-.12c5.63-.3,9.61-10,10.76-12.11,2-3.58,7.26-11.44,7.63-18.25.17-3.21.54-7.54-.1-10.69M31.16,73.64c-3.84,0-8.13-.93-10.06-5.59,1.61-2.72,6.48-.13,11.12-.1,4.44,0,8.25-2,10.06.21-1.4,5.48-6.75,5.48-11.12,5.48" transform="translate(0 0)"/><path d="M37.28,56.65a9.55,9.55,0,0,0-5.15.72,2.6,2.6,0,0,1-1.53.21c-1.32-.26-2.62-.71-3.94-.94-.56-.09-1.18.19-1.9.06.72-.41,1.42-.85,2.16-1.23s1.46.1,2.2.6A3.06,3.06,0,0,0,32.84,56c1.29-1.13,2.3-.75,3.46,0,.34.21.65.46,1,.7" transform="translate(0 0)"/><path d="M50.11,15C47.61-.59,21.34-7.09,9.49,10.66c-1,1.5-4,5.87-1,7,2,.77,4.22.2,6.22-.34s10-2.85,12.09-3.42c4.78-1.32,10.29,1.1,14.86,1.6,2.5.28,5.9.83,7.53-.51" transform="translate(0 0)"/><path d="M57.16,39.83c3-14.13.73-29-8-24.85-1.68.8,1.68,6.09,1.68,6.09,5.68,6.53,6.32,18.76,6.32,18.76" transform="translate(0 0)"/><path d="M5.16,44.1C2.77,28.24-.57,16.92,10.84,16.92c1.85,0-1.83,6.93-1.83,6.93-5.14,7-3.85,20.25-3.85,20.25" transform="translate(0 0)"/></g></g></g></svg>